<?xml version="1.0" encoding="iso-8859-1"?>
<!-- Generator: Adobe Illustrator 19.0.0, SVG Export Plug-In . SVG Version: 6.00 Build 0)  -->
<svg version="1.1" id="Layer_1" xmlns="http://www.w3.org/2000/svg" xmlns:xlink="http://www.w3.org/1999/xlink" x="0px" y="0px"
	 viewBox="0 0 318.667 66.333" style="enable-background:new 0 0 318.667 66.333;" xml:space="preserve">
<style type="text/css">
</style>
<g id="XMLID_415_">
	<g id="XMLID_268_">
		<g id="XMLID_440_">
			<path id="XMLID_441_" style="fill:none;stroke:#3A3A3A;stroke-width:2;stroke-miterlimit:10;" d="M62.792,32.533c0-2.2-1.8-4-4-4
				h-9.625"/>
		</g>
		<g id="XMLID_246_">
			<path id="XMLID_66_" style="fill:#696969;" d="M60.075,53.891c0,4.4-3.6,8-8,8H13.409c-4.4,0-8-3.6-8-8V15.225c0-4.4,3.6-8,8-8
				h38.667c4.4,0,8,3.6,8,8V53.891z"/>
			<path id="XMLID_65_" style="fill:none;stroke:#3A3A3A;stroke-width:2;stroke-miterlimit:10;" d="M60.075,53.891c0,4.4-3.6,8-8,8
				H13.409c-4.4,0-8-3.6-8-8V15.225c0-4.4,3.6-8,8-8h38.667c4.4,0,8,3.6,8,8V53.891z"/>
		</g>
		<g id="XMLID_410_">
			<path id="XMLID_531_" style="fill:#7EBB49;" d="M11.399,22.809c-1.25-4.219,1.179-8.693,5.397-9.943l24.833-7.359
				c4.219-1.25,8.693,1.179,9.943,5.397l4.309,14.541c0,0,0.378-1.914-3.381-2.219"/>
			
				<path id="XMLID_537_" style="fill:none;stroke:#3A3A3A;stroke-width:2;stroke-linecap:round;stroke-linejoin:round;stroke-miterlimit:10;" d="
				M11.399,22.809c-1.25-4.219,1.179-8.693,5.397-9.943l24.833-7.359c4.219-1.25,8.693,1.179,9.943,5.397l3.75,12.655"/>
		</g>
		<g id="XMLID_443_">
			<path id="XMLID_451_" style="fill:#FFE003;" d="M15.18,23.504c0,0-1.363,0.242-3-0.279c-0.814-0.259-2.939-0.547-2.636-1.004
				c0.912-1.375,2.257-2.486,4.228-3.123l26.113-7.873c4.509-1.345,9.298,1.244,10.643,5.753l1.973,6.246"/>
			<path id="XMLID_450_" style="fill:#EFCA0E;" d="M15.805,23.336c0,0-1.363,0.242-3-0.279c-0.814-0.259-3.405-0.327-3.123-0.761
				c0.913-1.41,2.27-2.551,4.278-3.199l26.113-7.873c2.248-0.67,4.565-0.363,6.491,0.672c-1.85,2.735-7.808,11.329-7.808,11.329"/>
			<path id="XMLID_447_" style="fill:#3A3A3A;" d="M8.681,30.587 M51.511,23.341l-1.936-6.061c-0.579-1.94-1.876-3.531-3.657-4.494
				c-1.126-0.609-2.356-0.918-3.596-0.918c-0.72,0-1.443,0.104-2.15,0.316l-26.11,7.872c-1.917,0.619-3.164,1.751-3.969,3.169
				c-0.074,0.13-1.734-0.958-1.592-1.194c1.002-1.664,2.556-3.107,4.964-3.884l26.131-7.879c2.44-0.727,5.021-0.458,7.272,0.759
				c2.251,1.217,3.891,3.229,4.617,5.666l1.958,6.132c0.097,0.304,0.042,0.635-0.146,0.893c-0.188,0.257-0.488,0.409-0.807,0.409"/>
		</g>
		
			<path id="XMLID_442_" style="fill:none;stroke:#3A3A3A;stroke-width:2;stroke-linecap:round;stroke-linejoin:round;stroke-miterlimit:10;" d="
			M41.341,14.536c2.133-0.636,4.399,0.589,5.035,2.722"/>
		<g id="XMLID_423_">
			<g id="XMLID_258_">
				<path id="XMLID_398_" style="fill:none;stroke:#3A3A3A;stroke-width:2;stroke-miterlimit:10;" d="M13.409,23.225h38.667
					c4.4,0,8,3.6,8,8"/>
			</g>
			<g id="XMLID_400_">
				<path id="XMLID_429_" style="fill:none;stroke:#3A3A3A;stroke-width:2;stroke-miterlimit:10;" d="M13.409,23.225
					c-4.4,0-8-3.6-8-8"/>
			</g>
		</g>
		<g id="XMLID_435_">
			<path id="XMLID_436_" style="fill:#525151;stroke:#3A3A3A;stroke-width:2;stroke-miterlimit:10;" d="M62.792,42.971
				c0,2.2-1.8,4-4,4h-4.625c-2.2,0-4-1.8-4-4v-2.438c0-2.2,1.8-4,4-4h4.625c2.2,0,4-1.583,4-4V42.971z"/>
		</g>
		<g id="XMLID_430_">
			<path id="XMLID_73_" style="fill:#2D2D2D;" d="M57.417,42.711c0,0.55-0.45,1-1,1h-1.958c-0.55,0-1-0.45-1-1v-1.958
				c0-0.55,0.45-1,1-1h1.958c0.55,0,1,0.45,1,1V42.711z"/>
		</g>
		<g id="XMLID_452_">
			
				<path id="XMLID_453_" style="fill:none;stroke:#3A3A3A;stroke-width:2;stroke-linecap:round;stroke-linejoin:round;stroke-miterlimit:10;" d="
				M15.528,56.591c-2.766,0-5.029-2.263-5.029-5.029"/>
		</g>
		
			<line id="XMLID_460_" style="fill:none;stroke:#3A3A3A;stroke-width:2;stroke-linecap:round;stroke-linejoin:round;stroke-miterlimit:10;" x1="10.499" y1="38.127" x2="10.499" y2="46.971"/>
		<g id="XMLID_437_">
			<path id="XMLID_485_" style="fill:none;stroke:#3A3A3A;stroke-linecap:round;stroke-miterlimit:10;" d="M38.172,52.697
				c-2.198,0.905-4.516,1.068-6.676,0.605c-1.098-0.235-2.155-0.632-3.135-1.175c-2.169-1.202-3.959-3.121-4.977-5.592
				c-0.683-1.659-0.943-3.386-0.831-5.062"/>
			<path id="XMLID_484_" style="fill:none;stroke:#3A3A3A;stroke-linecap:round;stroke-miterlimit:10;" d="M23.33,38.043
				c1.093-2.755,3.26-5.079,6.217-6.297c2.765-1.138,5.72-1.102,8.312-0.123c1.467,0.554,2.817,1.409,3.951,2.525"/>
			<g id="XMLID_478_">
				<path id="XMLID_483_" style="fill:none;stroke:#3A3A3A;stroke-linecap:round;stroke-miterlimit:10;" d="M28.034,38.449
					c0.745-1.169,1.844-2.127,3.223-2.695c1.608-0.662,3.321-0.679,4.851-0.17"/>
				<path id="XMLID_482_" style="fill:none;stroke:#3A3A3A;stroke-linecap:round;stroke-miterlimit:10;" d="M29.519,47.615
					c-0.877-0.71-1.594-1.644-2.054-2.761c-0.599-1.454-0.67-2.994-0.301-4.407"/>
				<path id="XMLID_481_" style="fill:none;stroke:#3A3A3A;stroke-linecap:round;stroke-miterlimit:10;" d="M37.625,48.1
					c-0.332,0.208-0.686,0.392-1.061,0.546c-2.107,0.867-4.393,0.627-6.213-0.452"/>
				<path id="XMLID_480_" style="fill:none;stroke:#3A3A3A;stroke-linecap:round;stroke-miterlimit:10;" d="M39.963,45.659
					c-0.299,0.525-0.668,1.013-1.099,1.448"/>
				<path id="XMLID_479_" style="fill:none;stroke:#3A3A3A;stroke-linecap:round;stroke-miterlimit:10;" d="M37.447,36.193
					c0.264,0.155,0.518,0.328,0.76,0.517"/>
			</g>
			<g id="XMLID_472_">
				<g id="XMLID_67_">
					
						<line id="XMLID_70_" style="fill:none;stroke:#3A3A3A;stroke-linecap:round;stroke-miterlimit:10;" x1="41.553" y1="47.843" x2="41.553" y2="47.843"/>
					
						<path id="XMLID_69_" style="fill:none;stroke:#3A3A3A;stroke-linecap:round;stroke-miterlimit:10;stroke-dasharray:0,1.972;" d="
						M40.233,49.304c-0.786,0.706-1.704,1.292-2.736,1.717c-4.86,2.001-10.421-0.317-12.421-5.177
						c-2.001-4.86,0.317-10.421,5.177-12.421c2.372-0.977,4.912-0.924,7.123-0.049"/>
					
						<line id="XMLID_68_" style="fill:none;stroke:#3A3A3A;stroke-linecap:round;stroke-miterlimit:10;" x1="38.271" y1="33.782" x2="38.271" y2="33.782"/>
				</g>
			</g>
		</g>
		<text id="XMLID_543_" transform="matrix(1 0 0 1 79.5941 48.6369)"><tspan x="0" y="0" style="fill:#3A3A3A; font-family:'Open Sans', Arial, sans-serif; font-size:38px; font-weight: 400;">Optima</tspan><tspan x="126.387" y="0" style="fill:#EFCA0D; font-family:'Open Sans', Arial, sans-serif; font-size:38px; font-weight: 400;">Bonus</tspan></text>
		<g id="XMLID_555_">
			
				<text id="XMLID_155_" transform="matrix(0.7071 0.7071 -0.7071 0.7071 30.8372 42.278)" style="fill:#3A3A3A; font-family:'Open Sans', Arial, sans-serif; font-size:6.8965px; font-weight: 400;">1</text>
		</g>
	</g>
	<path id="XMLID_358_" style="fill:#262626;" d="M53.774,43.438c-0.194-0.183-0.315-0.441-0.315-0.727v-1.958c0-0.55,0.45-1,1-1
		h1.958c0.273,0,0.522,0.111,0.703,0.291L53.774,43.438z"/>
</g>
</svg>
